PathFileType	4	(X/Y/Z)	pose_F01_0-91.trc
DataRate	CameraRate	NumFrames	NumMarkers	Units	OrigDataRate	OrigDataStartFrame	OrigNumFrames
30	30	7	21	m	30	11	91
Frame#	Time	CHip			RHip			RKnee			RAnkle			RBigToe			RSmallToe			RHeel			LHip			LKnee			LAnkle			LBigToe			LSmallToe			LHeel			Neck			Nose			RShoulder			RElbow			RWrist			LShoulder			LElbow			LWrist			
		X1	Y1	Z1	X2	Y2	Z2	X3	Y3	Z3	X4	Y4	Z4	X5	Y5	Z5	X6	Y6	Z6	X7	Y7	Z7	X8	Y8	Z8	X9	Y9	Z9	X10	Y10	Z10	X11	Y11	Z11	X12	Y12	Z12	X13	Y13	Z13	X14	Y14	Z14	X15	Y15	Z15	X16	Y16	Z16	X17	Y17	Z17	X18	Y18	Z18	X19	Y19	Z19	X20	Y20	Z20	X21	Y21	Z21	
11	0.36666666666666664	-0.20692639982994623	1.880738219289477	-0.5715266637987154	-0.22018875606071583	1.8771558276981017	-0.49605302628455156	-0.2142387999197373	1.7329935595283643	-0.4789841938561735	-0.21238730653724097	1.5858298129182289	-0.4361468994083741	-0.20518086165084057	1.5749627837428932	-0.37339874842517246	-0.19873538764215026	1.5877587476652217	-0.3591809035769447	-0.21059467700651993	1.5756587638876385	-0.4502556561098666	-0.19241929489883272	1.8840353559898884	-0.638245765275709	-0.1894175890517068	1.7373739743032743	-0.6495370281197088	-0.18093351467692148	1.5775384965988815	-0.666031765036613	-0.20445196843571545	1.5300669354346872	-0.66186349103467	-0.18855366405621363	1.5403787906069848	-0.6956284252818229	-0.17312543314416887	1.5667192240617085	-0.6560415855074229	-0.19723913448325164	2.0543512279497786	-0.5827047525062279	-0.22169506650953208	2.127780281133754	-0.5747146362412044	-0.21179345612783104	2.0512555700958974	-0.4877094717195044	-0.21251078286707095	1.9722522192043337	-0.4089391938346547	-0.24070103593590852	1.9109398676849592	-0.3834276680789088	-0.18167261028589782	2.0603154614115757	-0.6841223132539027	-0.16790992322345366	1.9841851685631682	-0.7617557644526796	-1.3609911398441954	1.8620603994921243	0.5295519829172833
12	0.4	-0.2059883855806639	1.8899320859017956	-0.5698724743057527	-0.22029455132034045	1.8868882697445886	-0.4978317585052529	-0.21415374085414152	1.7385982056605955	-0.4797106090367048	-0.21362739143202034	1.5847190853417266	-0.4345687031722892	-0.20518086165084057	1.5749627837428932	-0.37339874842517246	-0.19873538764215026	1.5877587476652217	-0.3591809035769447	-0.20919873974730094	1.5759357247343657	-0.44766685011291857	-0.193595567644454	1.893172937678956	-0.6341705012085566	-0.19139488337461455	1.7452706338147304	-0.6486062035665164	-0.18253585291252145	1.5818419295268318	-0.66863868091229	-0.2050233460676824	1.5312744754874914	-0.652942182500424	-0.19110870173053265	1.5389739484037892	-0.6927028658761057	-0.17769394806623495	1.5707413186838703	-0.6596859810706704	-0.200128513757427	2.056904407361144	-0.5838138689923593	-0.22368099501915917	2.1302529441849094	-0.5731229815679819	-0.2137119120575517	2.0523457739670152	-0.4854003961459108	-0.2127755675703939	1.9790569562375822	-0.38689714792225127	-0.25481937808433824	1.9332945762322937	-0.39942360804622523	-0.18381141504390622	2.0628010410679027	-0.6822852611481204	-0.17098996529293858	1.9935663950747615	-0.7754590160510035	-0.2098340944354085	2.0090256694794393	-0.6615807028414447
13	0.43333333333333335	-0.20509079441792025	1.8853914031193637	-0.5688267856985666	-0.21447803237335258	1.8802593877050624	-0.49770950792623886	-0.21278155195986442	1.731015506981612	-0.47598645125686556	-0.21371529210418466	1.5820286563429062	-0.4342363847778612	-0.20518086165084057	1.5749627837428932	-0.37339874842517246	-0.19873538764215026	1.5877587476652217	-0.3591809035769447	-0.2096879753286498	1.5732657094305005	-0.44276108726852137	-0.193415921581976	1.8883048665017044	-0.6361941458690504	-0.19032614910450468	1.7347415531967136	-0.656792740557509	-0.18369539851046868	1.5805837923675103	-0.671374878440234	-0.2040282979982321	1.5328895232786504	-0.6580782790214567	-0.1918389977892977	1.5416731185798296	-0.6962715949962579	-0.17653807632498608	1.5710823570240633	-0.6652392512983563	-0.20218873018689257	2.05558398886874	-0.5811487355876371	-0.22758800214847358	2.1315066036852994	-0.5766048669569731	-0.2156831513170882	2.050942808587419	-0.4826213415315814	-0.2138243732677545	1.97702160104646	-0.37396765648075203	-0.2612886990814816	1.9547183822512286	-0.4075184053528024	-0.18680271637393592	2.0638423230688017	-0.6829436526163214	-0.17847204408567646	1.9945956775183924	-0.7715717801693249	-0.2102760370095298	2.0222851905757593	-0.6571281718883009
14	0.4666666666666667	-0.2016325723984754	1.8803106181384164	-0.575896025915519	-0.21128497358839216	1.8769826611025073	-0.504925802038538	-0.2163498204643944	1.7295415212644885	-0.471830465565198	-0.21564920931129317	1.5819383880803914	-0.432032625273068	-0.20518086165084057	1.5749627837428932	-0.37339874842517246	-0.19873538764215026	1.5877587476652217	-0.3591809035769447	-0.2108735013329311	1.5743343895660467	-0.4457289681240709	-0.18475886860244867	1.885086081330109	-0.6450112010027599	-0.1922041947959904	1.7334077908592709	-0.6630596457634738	-0.18094033949519422	1.5834438345533675	-0.682904156849581	-0.2030058676044361	1.5375978339371958	-0.663737526186197	-0.19095708355940713	1.5446898798340245	-0.7013570099852386	-0.1742098885671541	1.573893335004252	-0.676089088069721	-0.2083203179376868	2.051331532358991	-0.5730176697518816	-0.22965505576358006	2.1225181653113014	-0.5701660501947824	-0.22252866096897822	2.0442381144105006	-0.4769561009084112	-0.21928721839502527	1.9768185749981482	-0.37517044067646216	-0.2659355705627265	1.9778416658835953	-0.44436306133202513	-0.19318784164352382	2.0580648396383174	-0.6744519522150412	-0.1876545083512251	1.997627533023184	-0.753385665672821	-0.23503416582684553	2.0251407026180406	-0.6375466885367476
15	0.5	-0.1936276478441642	1.8738000856703825	-0.5841104947836536	-0.20757723727068245	1.8707062078586654	-0.508441758724896	-0.22086453907077339	1.7252896581607287	-0.4661090238445308	-0.2155089306330434	1.5804232435677312	-0.43225184300558633	-0.20518086165084057	1.5749627837428932	-0.37339874842517246	-0.19873538764215026	1.5877587476652217	-0.3591809035769447	-0.21065645379551537	1.5728298565117778	-0.4460323138816324	-0.17941882622249422	1.8788833622414378	-0.6542265368123579	-0.19171323768916101	1.7295061008814674	-0.6712545445201021	-0.17251834543638808	1.583930784328731	-0.6914108392735274	-0.2019581140947832	1.5427267454933056	-0.6694759404335647	-0.3114845314032068	1.491321254875515	-1.1577973691973118	-0.1647848202021511	1.5735823776035538	-0.6894184429112151	-0.21525027804268052	2.0416729323446887	-0.5756248947180503	-0.23565964397600667	2.111587470620266	-0.5683252255028902	-0.2278378416296445	2.032860417175615	-0.4734730123147066	-0.23745813390735687	1.9500358097904267	-0.3754091760077897	-0.26881671702238336	1.9784344339113447	-0.4453868481843494	-0.19490389052086934	2.0515537972541638	-0.6787448451328238	-0.20187958363284622	1.994909080413029	-0.7217124050138045	-0.2361658093605469	2.025780669948651	-0.6132514478348252
16	0.5333333333333333	-0.1893170383641641	1.8681348931776998	-0.5967232997381581	-0.2012789352701544	1.863637713710814	-0.5315540706652635	-0.22391780120698626	1.7245972971179415	-0.4671802944890902	-0.21448370928838195	1.580459436056856	-0.4289798670393115	-0.20518086165084057	1.5749627837428932	-0.37339874842517246	-0.19873538764215026	1.5877587476652217	-0.3591809035769447	-0.2074497922509645	1.5718582296121846	-0.4447288215994677	-0.17565455290694976	1.8725832073448412	-0.6700884705805238	-0.19010918683472555	1.7255871854968337	-0.6725517775895835	-0.1618048939950962	1.5822810825710858	-0.701761790811924	-0.1899503189493498	1.5397543750193035	-0.6851248358995321	-0.3017527668871953	1.4857610673762411	-1.1836360972053794	-0.15326000683219682	1.5728613344120215	-0.7011135509223235	-0.21653948980061652	2.0328488514462544	-0.5778561918109374	-0.23697068212750735	2.0984590127152503	-0.5688314538209607	-0.23093660973393854	2.0243319720397785	-0.48109369461799756	-0.25357483622929716	1.938361600239831	-0.39044497777686	-0.25091348447800493	1.9817607290210157	-0.46621308864323585	-0.19740550868707268	2.0402875334653783	-0.6755188652364825	-0.22022138774543462	1.9743187345603233	-0.6903536339306219	-0.24938175933004067	2.0021238863792106	-0.5963991500526364
17	0.5666666666666667	-0.18524763643698103	1.8648096438272435	-0.6095931632217132	-0.20043082088557373	1.8617131486770693	-0.5457883142554624	-0.22657889733057782	1.7237225318291285	-0.4644046175344805	-0.21575725133450277	1.5819429403374905	-0.4321309809658884	-0.20518086165084057	1.5749627837428932	-0.37339874842517246	-0.19873538764215026	1.5877587476652217	-0.3591809035769447	-0.20845564001238795	1.5743440528046508	-0.44845948107681766	-0.1704945765803444	1.8693006423928409	-0.6797503742579589	-0.19109772303697187	1.718877650552289	-0.67499112252312	-0.1588506590173314	1.5838300138871217	-0.7054162380092128	-0.1825344332528877	1.543108623433474	-0.693294221575836	-0.16867703661439173	1.5499002834886169	-0.7287509519929417	-0.15300514439713297	1.5739491780537391	-0.7020064887030347	-0.2146617534660558	2.0230160009722264	-0.5873704487052964	-0.24605358841849392	2.080254664497346	-0.5694510191795049	-0.22932139466264034	2.0134356635206894	-0.49080780135722396	-0.2586620907277944	1.9291164897960984	-0.4194646175949421	-0.24834042177915158	1.9796315835012155	-0.49965692906757603	-0.19942586090937456	2.0313767974029364	-0.6806500109760987	-0.2314913554521469	1.9623796402342304	-0.6777945661551921	-0.23967061241555718	2.006250154730813	-0.5930195468937
